<?xml version="1.0" standalone="no"?>
<!DOCTYPE svg PUBLIC "-//W3C//DTD SVG 20010904//EN"
 "http://www.w3.org/TR/2001/REC-SVG-20010904/DTD/svg10.dtd">
<svg version="1.0" xmlns="http://www.w3.org/2000/svg"
 width="1351.000000pt" height="1351.000000pt" viewBox="0 0 1351.000000 1351.000000"
 preserveAspectRatio="xMidYMid meet">
<metadata>
Created by potrace 1.14, written by Peter Selinger 2001-2017
</metadata>
<g transform="translate(0.000000,1351.000000) scale(0.100000,-0.100000)"
fill="#000000" stroke="none">
<path d="M4200 10420 c-8 -5 -14 -76 -25 -265 -2 -44 -7 -127 -11 -185 -3 -58
-6 -117 -5 -132 1 -16 -1 -28 -4 -28 -3 0 -42 19 -88 41 -244 123 -565 221
-866 265 -25 4 -55 8 -66 10 -11 2 -47 7 -80 10 -33 3 -73 8 -90 10 -113 13
-484 18 -1590 18 l-1260 1 0 -3410 0 -3410 155 -1 c85 0 160 1 165 3 7 2 10
438 10 1296 -1 710 1 1299 3 1307 3 13 132 15 1095 16 1082 0 1276 4 1452 29
22 3 63 8 90 11 42 5 123 20 275 50 175 35 449 129 625 215 179 87 239 122
372 220 l91 68 227 -150 227 -149 116 44 c245 93 426 144 640 181 416 72 810
46 1110 -74 28 -11 53 -20 53 -18 5 9 3 1490 -2 1493 -40 25 -688 24 -839 0
-14 -3 -43 -7 -65 -10 -72 -9 -114 -17 -258 -48 -78 -16 -153 -32 -166 -35
-22 -5 -23 -4 -17 38 3 24 8 94 11 154 4 61 8 130 10 155 2 25 7 90 10 145 3
55 8 125 10 155 2 30 7 100 10 155 3 55 8 125 10 155 2 30 7 102 10 160 4 58
9 108 12 113 2 4 289 7 636 7 l632 0 0 695 0 695 -40 1 c-231 3 -2579 3 -2585
-1z m-1335 -573 c118 -13 161 -19 255 -33 52 -8 113 -19 135 -24 22 -5 51 -11
65 -13 214 -39 534 -169 748 -303 l63 -39 -6 -135 c-3 -74 -8 -157 -10 -185
-2 -27 -6 -102 -9 -165 -4 -63 -8 -144 -11 -180 -2 -36 -6 -114 -10 -175 -12
-228 -16 -282 -20 -345 -2 -36 -7 -117 -10 -180 -3 -63 -8 -142 -10 -175 -3
-33 -7 -109 -10 -170 -3 -60 -7 -137 -10 -170 -2 -33 -7 -116 -11 -185 -3 -69
-7 -145 -9 -170 -2 -25 -7 -106 -11 -180 -3 -74 -8 -138 -10 -142 -3 -4 37
-35 87 -69 l91 -61 -48 -35 c-72 -51 -219 -136 -299 -173 -68 -31 -240 -100
-260 -104 -5 -2 -41 -12 -80 -24 -38 -12 -110 -31 -160 -43 -106 -25 -94 -22
-215 -43 -89 -15 -122 -19 -260 -31 -30 -2 -86 -7 -125 -11 -52 -4 -2122 -9
-2250 -5 -20 1 -20 7 -19 1789 1 983 2 1788 3 1790 2 6 2357 -5 2416 -11z"/>
<path d="M7057 10420 c-10 -4 -12 -157 -12 -695 l0 -690 551 -5 551 -5 -88
-125 c-220 -313 -403 -685 -506 -1033 l-37 -124 -45 13 c-25 7 -71 20 -101 29
-30 10 -64 19 -75 21 -11 2 -29 6 -40 8 -61 14 -163 35 -185 38 l-25 3 0 -797
0 -797 74 -73 c144 -141 236 -324 257 -513 28 -251 -16 -481 -124 -660 -47
-77 -62 -96 -142 -174 l-65 -65 0 -797 0 -797 25 5 c48 8 233 64 329 99 120
44 372 167 471 230 79 51 201 139 260 188 62 52 284 281 310 319 14 20 28 37
32 37 4 0 52 -38 107 -84 220 -183 498 -355 746 -461 22 -9 49 -21 60 -26 111
-49 342 -123 510 -163 61 -15 270 -54 328 -61 103 -13 190 -22 307 -30 77 -6
403 -6 475 -1 92 7 210 18 226 21 8 1 40 6 70 9 30 4 61 8 69 10 8 1 38 6 65
11 40 6 161 31 245 50 187 42 505 152 690 237 179 83 210 99 383 197 183 103
442 289 624 448 l60 53 -1 1272 -1 1273 -1372 0 c-1367 0 -1373 0 -1374 -20 0
-11 -1 -83 -1 -160 l-2 -140 1212 -3 1212 -2 1 -195 c0 -107 0 -535 0 -950 0
-415 0 -799 0 -853 l-1 -97 -99 -78 c-90 -70 -392 -277 -404 -277 -3 0 -40
-20 -82 -45 -350 -207 -878 -388 -1285 -440 -30 -4 -64 -9 -75 -11 -117 -24
-660 -23 -784 1 -10 2 -42 6 -72 10 -78 9 -248 42 -363 71 -452 114 -884 348
-1230 667 l-60 55 48 102 c66 140 142 357 162 460 3 14 7 33 10 42 3 10 7 30
10 45 3 16 11 64 19 108 8 44 17 112 20 150 4 39 9 86 11 105 7 55 6 398 -1
470 -3 36 -8 85 -10 110 -3 39 -24 180 -40 264 -13 67 -36 156 -59 226 -163
509 -458 873 -922 1139 l-71 40 19 68 c10 37 21 75 23 84 10 45 92 269 137
373 114 267 290 561 450 751 9 11 40 48 68 83 31 36 60 62 71 62 12 0 19 7 19
18 0 11 24 43 53 73 399 405 899 678 1460 794 10 2 26 6 35 9 9 3 37 7 62 10
25 4 56 8 70 10 135 22 249 29 450 29 210 0 318 -6 485 -28 71 -9 225 -36 285
-50 36 -9 72 -17 80 -19 17 -3 19 -3 160 -47 376 -115 739 -320 1142 -644 l57
-46 103 121 c57 67 103 127 103 133 0 13 -195 167 -345 271 -353 246 -739 425
-1105 511 -101 24 -112 26 -220 45 -103 19 -109 20 -170 26 -33 3 -66 7 -73 9
-57 19 -661 28 -817 12 -662 -66 -1254 -300 -1734 -685 -31 -25 -61 -49 -68
-54 -8 -7 -11 102 -10 442 1 294 -1 450 -8 451 -66 3 -1549 3 -1558 -1z"/>
<path d="M4270 5088 c-102 -121 -196 -235 -210 -251 -27 -33 -251 -300 -278
-332 -10 -11 -77 -92 -151 -179 l-133 -160 39 -34 c50 -45 242 -210 268 -231
91 -73 123 -97 220 -163 508 -349 1074 -560 1670 -623 33 -4 70 -8 82 -10 48
-8 274 -18 403 -18 164 -1 377 11 495 28 22 3 63 8 90 11 28 4 52 8 55 11 3 3
5 344 5 759 0 667 -2 755 -15 750 -8 -2 -46 -16 -85 -30 -83 -30 -226 -63
-322 -73 -89 -10 -359 -10 -445 0 -328 36 -674 167 -993 375 -43 28 -257 183
-265 192 -12 12 -238 200 -242 200 -2 0 -87 -100 -188 -222z"/>
</g>
</svg>
